<svg xmlns="http://www.w3.org/2000/svg" viewBox="0 0 16 16" id="Apple--Streamline-Font-Awesome" height="16" width="16">
  <desc>
    Apple Streamline Icon: https://streamlinehq.com
  </desc>
<!--! Font Awesome Free 6.5.2 by @fontawesome - https://fontawesome.com License - https://fontawesome.com/license/free (Icons: CC BY 4.0, Fonts: SIL OFL 1.1, Code: MIT License) Copyright 2024 Fonticons, Inc.-->
  <path d="M12.428304166666665 8.446008333333332c-0.007 -1.2847333333333333 0.5741041666666666 -2.2544125 1.7503208333333333 -2.968541666666667 -0.6581208333333333 -0.9416708333333333 -1.6522999999999999 -1.4597666666666664 -2.9650416666666666 -1.5612833333333331 -1.2427249999999999 -0.09801666666666665 -2.6009708333333332 0.7246333333333334 -3.0980624999999997 0.7246333333333334 -0.5250958333333333 0 -1.7293125 -0.6896249999999999 -2.6744875 -0.6896249999999999 -1.9533541666666665 0.031504166666666666 -4.029233333333333 1.5577833333333333 -4.029233333333333 4.662845833333333q0 1.37575 0.5040916666666666 2.8425166666666666c0.4480833333333333 1.2847333333333333 2.0653791666666663 4.435308333333333 3.7526833333333336 4.382795833333333 0.8821625 -0.020999999999999998 1.5052750000000001 -0.6266125 2.653483333333333 -0.6266125 1.1132041666666666 0 1.6908083333333332 0.6266125 2.6744875 0.6266125 1.7013083333333334 -0.024504166666666664 3.1645749999999997 -2.888025 3.591654166666667 -4.176258333333333 -2.2824166666666663 -1.0746958333333332 -2.159895833333333 -3.150570833333333 -2.159895833333333 -3.217083333333333ZM10.446945833333332 2.6979624999999996c0.9556749999999999 -1.1342083333333333 0.8681583333333333 -2.1668958333333332 0.8401541666666665 -2.5379625 -0.8436541666666666 0.04900833333333333 -1.8203333333333334 0.5741041666666666 -2.376933333333333 1.2217208333333334 -0.6126125 0.6931291666666667 -0.9731791666666667 1.5507833333333334 -0.8961625 2.516958333333333 0.9136666666666666 0.07001249999999999 1.7468166666666667 -0.3990708333333333 2.4329416666666663 -1.2007166666666667Z" fill="#000000" stroke-width="0.0417"></path>
</svg>